<?xml version="1.0" encoding="UTF-8" standalone="no"?>
<!-- Created with Inkscape (http://www.inkscape.org/) -->

<svg
   width="142.71001mm"
   height="74.062668mm"
   viewBox="0 0 142.71001 74.062668"
   version="1.1"
   id="svg1"
   xmlns="http://www.w3.org/2000/svg"
   xmlns:svg="http://www.w3.org/2000/svg">
  <defs
     id="defs1" />
  <g
     id="layer1"
     transform="translate(-26.387447,-47.910898)">
    <g
       id="g1">
      <path
         id="Line_19_copy"
         data-name="Line 19 copy"
         class="cls-1"
         d="m 165.23171,121.97277 h -2.47384 l 8.9e-4,-5.87589 h 2.47306 z"
         style="fill:#339c5e;fill-rule:evenodd;stroke-width:0.0784602" />
      <path
         id="builder"
         class="cls-1"
         d="m 46.559719,114.04515 c 1.898739,0 3.528882,-0.686 4.890428,-2.05801 1.361388,-1.37305 2.042181,-2.99796 2.04239,-4.87473 V 96.697298 c 0,-1.898739 -0.680792,-3.534299 -2.04239,-4.906667 -1.361599,-1.372368 -2.991741,-2.058617 -4.890428,-2.058722 h -3.482616 c -1.019989,0 -1.82027,0.287512 -2.400883,0.862511 -0.5806,0.575012 -0.941283,1.448411 -1.082048,2.620183 V 82.799169 h -6.93274 V 114.04515 Z M 39.594172,96.697298 c 0.01049,-1.91936 1.563347,-3.472869 3.482695,-3.482695 0.94388,0 1.760282,0.341768 2.449221,1.025315 0.670653,0.640154 1.044991,1.530317 1.033395,2.45738 v 10.415112 c 0,0.93368 -0.339026,1.74208 -1.017077,2.4252 -0.643879,0.66924 -1.536981,1.04071 -2.465539,1.02548 h -3.482695 z m 29.72976,-6.965389 v 17.380501 c 0,0.93368 -0.339038,1.74208 -1.017089,2.4252 -1.359342,1.36731 -3.571725,1.36731 -4.931067,0 -0.678208,-0.68339 -1.01726,-1.49179 -1.017155,-2.4252 V 89.731909 h -6.93274 v 17.380501 c 0,1.89874 0.680793,3.52888 2.042391,4.89043 1.361598,1.36155 2.991715,2.04231 4.890349,2.04231 h 3.482695 c 2.050419,0 3.211291,-1.16069 3.482616,-3.48206 v 3.48206 h 6.932819 V 89.731909 Z m 16.632385,-3.450045 v -3.482695 h -6.932753 v 3.482695 z m 0,27.763286 V 89.731909 h -6.932753 v 24.313241 z m 10.823039,0 V 73.697781 H 89.84621 v 40.347369 h 6.93291 z M 120.15186,73.697781 h -6.93274 v 16.034128 h -6.96571 c -1.88774,0 -3.51528,0.680805 -4.88257,2.042404 -1.3673,1.361598 -2.050688,3.002562 -2.050164,4.922907 v 10.41519 c 0,1.89874 0.680784,3.52888 2.042324,4.89043 1.36153,1.36155 2.99167,2.04231 4.89041,2.04231 h 3.48285 c 2.05017,0 3.21113,-1.16069 3.48286,-3.48206 v 3.48206 h 6.93274 z m -6.93274,33.414629 c 0,0.93368 -0.33921,1.74208 -1.01763,2.4252 -1.35942,1.36728 -3.57182,1.36728 -4.93122,0 -0.67791,-0.68339 -1.01686,-1.49179 -1.01686,-2.4252 V 96.697298 c 0.0105,-1.919334 1.56353,-3.472738 3.48285,-3.482695 h 3.48286 z m 30.52965,-10.415112 c 0,-1.898739 -0.68078,-3.534299 -2.04233,-4.906667 -1.36153,-1.372368 -2.99175,-2.058617 -4.89065,-2.058722 h -6.96492 c -1.88775,0 -3.51528,0.680805 -4.88257,2.042404 -1.3673,1.361598 -2.05069,3.002562 -2.05017,4.922907 v 10.41519 c 0,1.89874 0.68077,3.52888 2.04231,4.89043 1.36155,1.36155 2.99169,2.04231 4.89043,2.04231 h 6.96492 c 4.07914,0 6.39005,-2.31091 6.93274,-6.93274 h -3.48285 c 0,2.30046 -1.14996,3.45068 -3.44989,3.45068 h -3.48285 c -0.92847,0.0152 -1.82147,-0.35625 -2.46521,-1.02548 -0.67791,-0.68339 -1.01686,-1.49179 -1.01686,-2.4252 v -3.48237 h 13.89766 v -6.932742 z m -13.89766,0 c 0.009,-1.919321 1.56274,-3.47304 3.48206,-3.482695 0.94388,0 1.76039,0.341768 2.44953,1.025315 0.67064,0.640167 1.04495,1.53033 1.03333,2.45738 v 3.450122 h -6.96492 z m 23.59691,3.450122 c -0.0105,-0.918167 0.36074,-1.799489 1.02547,-2.432966 0.64477,-0.662009 1.53335,-1.029814 2.45738,-1.017156 h 6.93274 v -6.965389 h -3.44989 c -2.05096,0 -3.65678,0.580455 -4.81747,1.741354 -1.16067,1.160898 -1.87676,2.902213 -2.14823,5.223957 v -6.965311 h -6.93274 v 24.313241 h 6.93274 z"
         style="fill:#339c5e;fill-rule:evenodd;stroke-width:0.0784602" />
      <path
         id="turf"
         class="cls-1"
         d="m 42.137145,61.72641 h -3.482603 v 3.482681 h 3.482603 v 13.898051 q 0,2.848103 2.034323,4.890428 2.034311,2.042312 4.898509,2.042391 h 3.482603 v -3.482682 h -0.325449 q -0.943959,0 -2.05055,-0.886608 -1.106604,-0.886595 -1.10629,-2.563214 V 65.209091 h 3.482603 V 61.72641 h -3.482917 v -6.932832 h -6.932832 v 6.932753 z m 27.080154,0 v 17.380732 q 0,1.39981 -1.017155,2.424889 a 3.4771209,3.4771209 0 0 1 -4.930988,0 Q 62.251831,80.506716 62.251988,79.107142 V 61.72641 h -6.93274 v 17.380732 q 0,2.848103 2.042404,4.890428 2.042391,2.042312 4.890336,2.042391 h 3.482695 q 3.075641,0 3.482616,-3.482682 v 3.482682 h 6.93274 V 61.72641 Z m 16.632148,10.415434 a 3.3070977,3.3070977 0 0 1 1.025249,-2.432981 3.365943,3.365943 0 0 1 2.457446,-1.017155 h 6.933055 V 61.72641 h -3.450675 q -3.075641,0 -4.816903,1.74134 -1.741276,1.741341 -2.148172,5.223958 V 61.72641 h -6.93274 v 24.313551 h 6.93274 z M 108.49636,86.039961 V 65.208777 h 3.48285 V 61.72641 h -3.48285 v -0.309223 q 0,-1.269407 0.9274,-2.205115 a 3.0291134,3.0291134 0 0 1 2.22985,-0.935799 h 3.77549 v -3.482695 h -7.24187 q -2.71748,0 -4.67074,1.952876 -1.95326,1.952876 -1.95287,4.670655 v 0.309222 h -3.482849 v 3.482682 h 3.482849 v 20.831184 h 6.93274 z"
         style="fill:#339c5e;fill-rule:evenodd;stroke-width:0.0784602" />
      <path
         style="fill:#339c5e;fill-opacity:1"
         d="m 132.91718,77.174355 c -0.18294,-0.204977 -0.76869,-1.035588 -1.30169,-1.845802 -0.53299,-0.810213 -1.44091,-2.098922 -2.0176,-2.863797 -1.33347,-1.768599 -1.83408,-2.540563 -2.3692,-3.653413 -1.41387,-2.940316 -1.01879,-5.607902 1.16615,-7.873835 1.0145,-1.052105 1.96511,-1.575917 3.48175,-1.918544 1.03549,-0.233931 1.08942,-0.23821 1.91404,-0.151867 1.19144,0.124751 1.94634,0.33359 2.8931,0.800364 1.76011,0.86777 2.98464,2.565317 3.46206,4.799395 0.51189,2.395384 -0.13732,4.203511 -2.7105,7.549008 -0.728,0.946507 -3.21249,4.466855 -3.56252,5.047837 -0.15215,0.252536 -0.43585,0.48334 -0.59412,0.48334 -0.0159,0 -0.17854,-0.167708 -0.36147,-0.372686 z m 1.34302,-8.243713 c 1.01206,-0.352907 1.81863,-0.919714 2.391,-1.680242 0.77781,-1.033503 1.31417,-2.75545 0.98269,-3.154856 -0.26516,-0.3195 -0.47131,-0.01756 -0.71722,1.050515 -0.18791,0.816121 -0.51709,1.379869 -1.17953,2.020022 -1.3849,1.338309 -3.19001,1.651059 -4.80607,0.832693 -0.52626,-0.266492 -1.12328,-0.844687 -1.3598,-1.316918 -0.23678,-0.472748 -0.39922,-0.668466 -0.55481,-0.668466 -0.0904,0 -0.1072,0.07572 -0.0767,0.345966 0.17437,1.546962 2.18292,2.859617 4.21827,2.756775 0.37028,-0.01871 0.86052,-0.101211 1.10221,-0.185489 z m -2.56931,-4.984147 c 0.19468,-0.507304 0.1105,-1.490189 -0.14584,-1.70293 -0.31876,-0.26455 -0.55576,0.725032 -0.35352,1.47611 0.073,0.271246 0.12336,0.33221 0.27419,0.33221 0.1016,0 0.20293,-0.04743 0.22517,-0.10539 z m 3.30646,-0.225909 c 0.24143,-0.34469 0.0731,-1.385001 -0.24382,-1.506604 -0.40642,-0.155959 -0.54815,0.683802 -0.2473,1.465217 0.10115,0.262699 0.32301,0.281396 0.49112,0.04139 z"
         id="path1" />
      <path
         id="Line_19"
         data-name="Line 19"
         class="cls-1"
         d="m 28.087834,121.97277 v -2.43541 H 164.45889 v 2.43541 z"
         style="fill:#339c5e;fill-rule:evenodd;stroke-width:0.0784602" />
      <path
         id="Line_19_copy_7"
         data-name="Line 19 copy 7"
         class="cls-1"
         d="m 133.3808,84.246294 v -2.473542 h 14.8431 v 2.473542 z"
         style="fill:#339c5e;fill-rule:evenodd;stroke-width:0.0784602" />
      <path
         id="Line_19_copy_5"
         data-name="Line 19 copy 5"
         class="cls-1"
         d="M 30.252468,50.385525 V 47.911997 H 148.2239 v 2.473528 z"
         style="fill:#339c5e;fill-rule:evenodd;stroke-width:0.0784602" />
      <path
         id="Line_19_copy_8"
         data-name="Line 19 copy 8"
         class="cls-1"
         d="m 134.61811,84.246451 h -2.47384 v -5.875576 h 2.47384 v 5.875498 z"
         style="fill:#339c5e;fill-rule:evenodd;stroke-width:0.0784602" />
      <path
         id="Line_19_copy_6"
         data-name="Line 19 copy 6"
         class="cls-1"
         d="m 148.2239,84.24754 -2.47307,-8.53e-4 V 49.147744 l 2.47307,8.53e-4 z"
         style="fill:#339c5e;fill-rule:evenodd;stroke-width:0.0784602" />
      <path
         id="Line_19_copy_2"
         data-name="Line 19 copy 2"
         class="cls-1"
         d="m 28.860818,121.97356 -2.473371,-8.9e-4 V 77.59679 l 2.473371,9.97e-4 z"
         style="fill:#339c5e;fill-rule:evenodd;stroke-width:0.0784602" />
      <path
         id="Line_19_copy_4"
         data-name="Line 19 copy 4"
         class="cls-1"
         d="m 32.726167,78.835515 -2.473384,-7.74e-4 V 47.910895 l 2.473384,7.74e-4 z"
         style="fill:#339c5e;fill-rule:evenodd;stroke-width:0.0784602" />
      <path
         id="Line_19_copy_3"
         data-name="Line 19 copy 3"
         class="cls-1"
         d="m 26.388771,78.851283 -0.0013,-2.473292 6.272962,-0.0039 0.0013,2.473371 z"
         style="fill:#339c5e;fill-rule:evenodd;stroke-width:0.0784602" />
      <path
         class="cls-1"
         d="m 163.91751,106.97511 c 2.86066,0 5.17995,2.28398 5.17995,5.10226 0,2.81829 -2.31929,5.10227 -5.17995,5.10227 -2.86066,0 -5.17994,-2.28477 -5.17994,-5.10227 0,-2.81751 2.31928,-5.10226 5.17994,-5.10226 z"
         id="path2"
         style="fill:#339c5e;fill-rule:evenodd;stroke-width:0.0784602" />
    </g>
  </g>
</svg>
