<?xml version="1.0" encoding="UTF-8" standalone="no"?>
<!-- Created with Inkscape (http://www.inkscape.org/) -->

<svg
   width="13.908913mm"
   height="18.731527mm"
   viewBox="0 0 13.908913 18.731527"
   version="1.1"
   id="svg1"
   xmlns="http://www.w3.org/2000/svg"
   xmlns:svg="http://www.w3.org/2000/svg">
  <defs
     id="defs1" />
  <g
     id="layer1"
     transform="translate(-126.39872,-58.81552)">
    <g
       id="g1">
      <path
         style="fill:#339c5e;fill-opacity:1"
         d="m 132.91718,77.174355 c -0.18294,-0.204977 -0.76869,-1.035588 -1.30169,-1.845802 -0.53299,-0.810213 -1.44091,-2.098922 -2.0176,-2.863797 -1.33347,-1.768599 -1.83408,-2.540563 -2.3692,-3.653413 -1.41387,-2.940316 -1.01879,-5.607902 1.16615,-7.873835 1.0145,-1.052105 1.96511,-1.575917 3.48175,-1.918544 1.03549,-0.233931 1.08942,-0.23821 1.91404,-0.151867 1.19144,0.124751 1.94634,0.33359 2.8931,0.800364 1.76011,0.86777 2.98464,2.565317 3.46206,4.799395 0.51189,2.395384 -0.13732,4.203511 -2.7105,7.549008 -0.728,0.946507 -3.21249,4.466855 -3.56252,5.047837 -0.15215,0.252536 -0.43585,0.48334 -0.59412,0.48334 -0.0159,0 -0.17854,-0.167708 -0.36147,-0.372686 z m 1.34302,-8.243713 c 1.01206,-0.352907 1.81863,-0.919714 2.391,-1.680242 0.77781,-1.033503 1.31417,-2.75545 0.98269,-3.154856 -0.26516,-0.3195 -0.47131,-0.01756 -0.71722,1.050515 -0.18791,0.816121 -0.51709,1.379869 -1.17953,2.020022 -1.3849,1.338309 -3.19001,1.651059 -4.80607,0.832693 -0.52626,-0.266492 -1.12328,-0.844687 -1.3598,-1.316918 -0.23678,-0.472748 -0.39922,-0.668466 -0.55481,-0.668466 -0.0904,0 -0.1072,0.07572 -0.0767,0.345966 0.17437,1.546962 2.18292,2.859617 4.21827,2.756775 0.37028,-0.01871 0.86052,-0.101211 1.10221,-0.185489 z m -2.56931,-4.984147 c 0.19468,-0.507304 0.1105,-1.490189 -0.14584,-1.70293 -0.31876,-0.26455 -0.55576,0.725032 -0.35352,1.47611 0.073,0.271246 0.12336,0.33221 0.27419,0.33221 0.1016,0 0.20293,-0.04743 0.22517,-0.10539 z m 3.30646,-0.225909 c 0.24143,-0.34469 0.0731,-1.385001 -0.24382,-1.506604 -0.40642,-0.155959 -0.54815,0.683802 -0.2473,1.465217 0.10115,0.262699 0.32301,0.281396 0.49112,0.04139 z"
         id="path1" />
    </g>
  </g>
</svg>
